<svg xmlns="http://www.w3.org/2000/svg" viewBox="0 0 24 24"
     aria-hidden="true"
     class="r-1nao33i r-4qtqp9 r-yyyyoo r-lwhw9o r-dnmrzs r-bnwqim r-1plcrui r-lrvibr r-cnnz9e fill-logo"
     width="26" height="26">
    <path d="M11.54 2.345c.276-.194.644-.194.92 0l8 5.623c.213.15.34.394.34.655V21c0 .442-.358.8-.8.8h-5.855c-.442 0-.8-.358-.8-.8v-6.7h-2.69V21c0 .442-.359.8-.8.8H4c-.442 0-.8-.358-.8-.8V8.623c0-.26.127-.505.34-.655zM12 3.978l-7.2 5.06V20.2h4.255v-6.7c0-.442.358-.8.8-.8h4.29c.442 0 .8.358.8.8v6.7H19.2V9.038z">
    </path>
</svg>